<svg width="16" height="16" version="1.1" xmlns="http://www.w3.org/2000/svg" desc="Created with imagetracer.js version 1.2.6" ><path fill="rgb(0,66,3)" stroke="rgb(0,66,3)" stroke-width="1" opacity="1" d="M 3 3 L 7 5.5 L 6.5 8 L 4 7.5 Q 6.5 6 3 4.5 L 3 3 Z " /><path fill="rgb(11,0,0)" stroke="rgb(11,0,0)" stroke-width="1" opacity="1" d="M 7.5 1 L 10 2.5 L 9.5 5 L 9 2 Q 6 0.8 7 4.5 L 6 4.5 L 7.5 1 Z " /><path fill="rgb(11,0,0)" stroke="rgb(11,0,0)" stroke-width="1" opacity="1" d="M 9.5 8 L 12 8.5 Q 9.5 10 13 11.5 Q 13.8 13.8 11.5 13 L 9 10.5 L 9.5 8 Z " /><path fill="rgb(126,106,25)" stroke="rgb(126,106,25)" stroke-width="1" opacity="1" d="M 11.5 3 Q 13.8 2.3 13 4.5 L 11 4.5 L 12 7.5 L 10.5 8 Q 7.8 6.8 10 5.5 L 11.5 3 Z " /><path fill="rgb(126,106,25)" stroke="rgb(126,106,25)" stroke-width="1" opacity="1" d="M 5.5 8 Q 9 10 4.5 12 L 5.5 8 Z " /><path fill="rgb(0,0,0)" stroke="rgb(0,0,0)" stroke-width="1" opacity="0" d="M 0 0 L 16 0 L 16 16 L 0 16 L 0 0 Z M 8 1 L 6 4 L 5 3 Q 2 2 3 5 Q 6 6 4 8 L 5 10 L 3 13 L 6 12 L 6 14 L 9 15 L 10 13 L 12 13 Q 14 14 13 12 Q 9 10 12 9 L 11 7 L 13 3 L 11 4 L 10 3 L 8 1 Z " /><path fill="rgb(0,0,0)" stroke="rgb(0,0,0)" stroke-width="1" opacity="0" d="M 7 7 Q 10 6 9 9 Q 6 10 7 7 Z " /><path fill="rgb(94,28,4)" stroke="rgb(94,28,4)" stroke-width="1" opacity="1" d="M 9.5 7 L 11.5 12 L 9 9.5 L 9.5 7 Z " /><path fill="rgb(94,28,4)" stroke="rgb(94,28,4)" stroke-width="1" opacity="1" d="M 4.5 8 L 7 8.5 L 7 10.5 L 4.5 13 Q 2.3 13.8 3 11.5 Q 6.1 9.8 4.5 8 Z " /><path fill="rgb(3,113,93)" stroke="rgb(3,113,93)" stroke-width="1" opacity="1" d="M 7.5 9 Q 9.8 8.3 9 10.5 L 10 12.5 L 7.5 14 L 6 11.5 L 8 11.5 L 7.5 9 Z " /><path fill="rgb(9,47,65)" stroke="rgb(9,47,65)" stroke-width="1" opacity="1" d="M 8.5 2 L 9 5.5 L 7 4.5 L 8.5 2 Z " /><path fill="rgb(9,47,65)" stroke="rgb(9,47,65)" stroke-width="1" opacity="1" d="M 6.5 13 L 8.5 14 L 10 13.5 L 7.5 15 L 6.5 13 Z " /></svg>